<svg version="1.1" id="Layer_1" xmlns="http://www.w3.org/2000/svg" xmlns:xlink="http://www.w3.org/1999/xlink" x="0px" y="0px"
	 width="100%" viewBox="0 0 256 256" enable-background="new 0 0 256 256" xml:space="preserve">
<path fill="#007BFF" opacity="1.000000" stroke="none" 
	d="
M168.000000,0.999999 
	C186.354233,1.000000 204.708450,1.000000 223.646927,1.332468 
	C227.292664,3.413361 230.641418,4.807510 233.343826,6.998790 
	C236.818436,9.816225 239.555359,13.536287 242.997147,16.402727 
	C251.414764,23.413197 254.071869,32.714733 253.954376,43.068752 
	C253.815216,55.329937 253.302963,67.586517 253.016327,79.846588 
	C252.914703,84.193535 253.082367,88.546692 252.985748,92.893867 
	C252.694443,106.000336 252.784149,119.138870 251.809540,132.196548 
	C251.323822,138.704102 251.573334,145.394135 248.090363,151.755615 
	C245.687958,156.143448 242.280945,159.130295 239.096008,162.531204 
	C232.478043,169.597961 225.717133,176.530991 219.004410,183.508804 
	C210.521088,192.327179 202.157623,201.265884 193.504532,209.914642 
	C182.959778,220.454041 172.098099,230.675812 161.514023,241.176620 
	C156.758759,245.894516 152.344528,250.956146 147.963257,255.660263 
	C145.168365,253.797150 142.099167,252.191925 139.567825,249.973068 
	C134.096542,245.177246 128.848404,240.121552 123.602158,235.075287 
	C104.705864,216.899307 85.794418,198.738495 66.991844,180.465820 
	C49.825867,163.783615 32.836021,146.920166 15.674775,130.233032 
	C10.955834,125.644478 5.900804,121.401543 0.999998,117.000000 
	C1.000000,115.611107 1.000000,114.222221 1.360436,112.410957 
	C2.399864,111.571426 3.205578,111.275513 3.738421,110.718536 
	C9.657899,104.531097 15.508225,98.277481 21.429632,92.091904 
	C32.255234,80.783333 43.098663,69.491692 53.968124,58.225273 
	C61.938644,49.963661 69.961067,41.752113 77.963379,33.521187 
	C82.634048,28.717081 87.733139,24.254547 91.881248,19.035677 
	C97.486931,11.983002 104.456383,7.291630 113.089157,5.623322 
	C120.413307,4.207910 127.940216,3.686447 135.405472,3.199759 
	C142.978088,2.706071 150.591446,2.865641 158.174118,2.483980 
	C161.465973,2.318290 164.725693,1.514153 168.000000,0.999999 
M195.994781,174.317245 
	C197.118454,171.510788 199.232483,168.676559 199.154678,165.903809 
	C199.003784,160.526749 196.846115,155.812302 192.052780,152.341858 
	C188.683212,149.902252 185.149200,146.867920 183.328659,143.269424 
	C178.462189,133.650253 179.849960,123.166748 180.505096,112.816132 
	C180.844864,107.448486 182.275452,100.602516 179.677582,96.915932 
	C174.138260,89.055222 166.325272,82.786346 159.338837,75.972977 
	C158.689758,75.339989 157.267532,75.212669 156.241791,75.298485 
	C148.134460,75.976753 140.046005,77.202766 131.932220,77.383301 
	C125.014244,77.537247 117.664803,78.585953 111.459351,74.218872 
	C108.538322,72.163208 105.961121,69.549911 103.484795,66.945282 
	C97.671272,60.830559 88.921638,57.815628 81.946556,63.376781 
	C76.314964,67.866791 71.145744,72.972290 66.026672,78.061508 
	C57.673225,86.366234 49.640541,94.994743 41.246502,103.257027 
	C37.093311,107.345032 33.925694,117.247215 36.932228,122.249336 
	C39.525112,126.563263 43.566044,130.068481 47.226334,133.667236 
	C56.811485,143.091248 66.581787,152.326614 76.199509,161.717850 
	C93.206711,178.324539 110.155502,194.991058 127.128433,211.632843 
	C127.366302,211.866043 127.566826,212.155502 127.840996,212.330765 
	C132.149933,215.085220 136.178070,219.314957 140.851105,220.224747 
	C148.142670,221.644348 154.276062,218.138123 159.627228,212.303055 
	C171.332764,199.538910 183.794678,187.468414 195.994781,174.317245 
M209.648285,21.757116 
	C200.701813,19.653273 193.076096,23.421280 186.487656,28.392944 
	C176.457764,35.961544 175.993988,56.848400 184.901382,66.377045 
	C189.443817,71.236305 194.954727,73.255653 201.573090,74.828575 
	C210.070862,76.848175 216.801163,73.850136 222.867279,70.023232 
	C227.089340,67.359680 230.693985,62.715851 232.678238,57.124134 
	C235.123810,50.232452 233.755020,43.735928 231.799942,37.583466 
	C228.580139,27.450928 220.284592,22.870829 209.648285,21.757116 
z"/>
<path fill="#FFFFFF" opacity="1.000000" stroke="none" 
	d="
M0.999998,117.468658 
	C5.900804,121.401543 10.955834,125.644478 15.674775,130.233032 
	C32.836021,146.920166 49.825867,163.783615 66.991844,180.465820 
	C85.794418,198.738495 104.705864,216.899307 123.602158,235.075287 
	C128.848404,240.121552 134.096542,245.177246 139.567825,249.973068 
	C142.099167,252.191925 145.168365,253.797150 147.963257,255.660263 
	C152.344528,250.956146 156.758759,245.894516 161.514023,241.176620 
	C172.098099,230.675812 182.959778,220.454041 193.504532,209.914642 
	C202.157623,201.265884 210.521088,192.327179 219.004410,183.508804 
	C225.717133,176.530991 232.478043,169.597961 239.096008,162.531204 
	C242.280945,159.130295 245.687958,156.143448 248.090363,151.755615 
	C251.573334,145.394135 251.323822,138.704102 251.809540,132.196548 
	C252.784149,119.138870 252.694443,106.000336 252.985748,92.893867 
	C253.082367,88.546692 252.914703,84.193535 253.016327,79.846588 
	C253.302963,67.586517 253.815216,55.329937 253.954376,43.068752 
	C254.071869,32.714733 251.414764,23.413197 242.997147,16.402727 
	C239.555359,13.536287 236.818436,9.816225 233.343826,6.998790 
	C230.641418,4.807510 227.292664,3.413361 224.115585,1.332468 
	C234.992966,1.000000 245.985947,1.000000 256.984192,0.999999 
	C256.989441,86.271759 256.989441,171.543518 256.989441,256.907654 
	C171.782867,256.907654 86.565598,256.907654 1.000000,256.907654 
	C1.000000,210.646347 1.000000,164.291840 0.999998,117.468658 
z"/>
<path fill="#FFFFFF" opacity="1.000000" stroke="none" 
	d="
M167.531342,0.999999 
	C164.725693,1.514153 161.465973,2.318290 158.174118,2.483980 
	C150.591446,2.865641 142.978088,2.706071 135.405472,3.199759 
	C127.940216,3.686447 120.413307,4.207910 113.089157,5.623322 
	C104.456383,7.291630 97.486931,11.983002 91.881248,19.035677 
	C87.733139,24.254547 82.634048,28.717081 77.963379,33.521187 
	C69.961067,41.752113 61.938644,49.963661 53.968124,58.225273 
	C43.098663,69.491692 32.255234,80.783333 21.429632,92.091904 
	C15.508225,98.277481 9.657899,104.531097 3.738421,110.718536 
	C3.205578,111.275513 2.399864,111.571426 1.360436,111.994293 
	C1.000000,75.058304 1.000000,38.116604 1.000000,1.000000 
	C56.354103,1.000000 111.708397,1.000000 167.531342,0.999999 
z"/>
<path fill="#FFFFFF" opacity="1.000000" stroke="none" 
	d="
M195.971222,174.715912 
	C183.794678,187.468414 171.332764,199.538910 159.627228,212.303055 
	C154.276062,218.138123 148.142670,221.644348 140.851105,220.224747 
	C136.178070,219.314957 132.149933,215.085220 127.840996,212.330765 
	C127.566826,212.155502 127.366302,211.866043 127.128433,211.632843 
	C110.155502,194.991058 93.206711,178.324539 76.199509,161.717850 
	C66.581787,152.326614 56.811485,143.091248 47.226334,133.667236 
	C43.566044,130.068481 39.525112,126.563263 36.932228,122.249336 
	C33.925694,117.247215 37.093311,107.345032 41.246502,103.257027 
	C49.640541,94.994743 57.673225,86.366234 66.026672,78.061508 
	C71.145744,72.972290 76.314964,67.866791 81.946556,63.376781 
	C88.921638,57.815628 97.671272,60.830559 103.484795,66.945282 
	C105.961121,69.549911 108.538322,72.163208 111.459351,74.218872 
	C117.664803,78.585953 125.014244,77.537247 131.932220,77.383301 
	C140.046005,77.202766 148.134460,75.976753 156.241791,75.298485 
	C157.267532,75.212669 158.689758,75.339989 159.338837,75.972977 
	C166.325272,82.786346 174.138260,89.055222 179.677582,96.915932 
	C182.275452,100.602516 180.844864,107.448486 180.505096,112.816132 
	C179.849960,123.166748 178.462189,133.650253 183.328659,143.269424 
	C185.149200,146.867920 188.683212,149.902252 192.052780,152.341858 
	C196.846115,155.812302 199.003784,160.526749 199.154678,165.903809 
	C199.232483,168.676559 197.118454,171.510788 195.971222,174.715912 
M79.051956,149.114304 
	C83.584015,161.001633 90.594681,170.834625 102.662445,175.962830 
	C117.281410,182.175201 131.330765,181.202118 144.561676,171.851837 
	C150.369827,167.747223 154.509323,162.455093 157.751938,156.179993 
	C163.330231,145.384933 162.063110,133.913055 159.692535,123.074982 
	C157.780350,114.332588 152.266418,107.057091 143.832047,101.810173 
	C137.670334,97.977043 131.724548,95.029503 124.618874,94.233093 
	C114.718880,93.123489 105.543976,95.022774 97.488319,101.052841 
	C94.504257,103.286568 91.900383,106.020889 89.035454,108.422333 
	C76.687492,118.772652 76.716728,133.687881 79.051956,149.114304 
M95.035210,78.514961 
	C97.661057,75.073807 97.656563,74.904366 94.046753,68.091164 
	C92.210831,64.626030 88.142838,64.300133 86.169746,65.772095 
	C82.116592,68.795807 78.756714,72.927338 75.686234,77.032745 
	C73.269394,80.264198 76.225235,91.099396 79.642120,92.750648 
	C80.322731,93.079552 81.939102,92.435051 82.574219,91.738281 
	C86.587311,87.335632 90.445526,82.791824 95.035210,78.514961 
M154.416580,96.859306 
	C158.601501,95.604431 162.616257,92.889381 161.661987,88.629768 
	C160.779526,84.690620 157.078949,81.382797 154.999512,78.351036 
	C152.813278,78.666367 151.185043,78.488770 150.059204,79.157265 
	C148.228043,80.244537 145.700562,81.628136 145.271301,83.339302 
	C143.828644,89.089905 147.682434,94.443939 154.416580,96.859306 
M165.453796,96.037880 
	C160.475800,103.033264 160.357666,103.140854 166.303467,109.669319 
	C167.931885,111.457321 170.500259,112.389267 172.637283,113.714058 
	C174.091339,111.060791 176.502823,108.514656 176.813995,105.733521 
	C177.638870,98.361313 174.952133,96.158928 165.453796,96.037880 
z"/>
<path fill="#FFFFFF" opacity="1.000000" stroke="none" 
	d="
M209.895233,21.544632 
	C220.284592,22.870829 228.580139,27.450928 231.799942,37.583466 
	C233.755020,43.735928 235.123810,50.232452 232.678238,57.124134 
	C230.693985,62.715851 227.089340,67.359680 222.867279,70.023232 
	C216.801163,73.850136 210.070862,76.848175 201.573090,74.828575 
	C194.954727,73.255653 189.443817,71.236305 184.901382,66.377045 
	C175.993988,56.848400 176.457764,35.961544 186.487656,28.392944 
	C193.076096,23.421280 200.701813,19.653273 209.895233,21.544632 
M205.014435,31.543966 
	C202.030457,33.441471 198.486404,33.254654 195.469589,36.342522 
	C187.703003,44.291992 188.723511,55.989380 197.915070,61.690777 
	C208.965469,68.545181 222.081818,61.552464 221.822678,49.720341 
	C221.722168,45.131042 221.035583,40.458298 216.691269,36.842987 
	C213.248550,33.977982 209.775330,32.425236 205.014435,31.543966 
z"/>
<path fill="#007BFF" opacity="1.000000" stroke="none" 
	d="
M79.019325,148.690933 
	C76.716728,133.687881 76.687492,118.772652 89.035454,108.422333 
	C91.900383,106.020889 94.504257,103.286568 97.488319,101.052841 
	C105.543976,95.022774 114.718880,93.123489 124.618874,94.233093 
	C131.724548,95.029503 137.670334,97.977043 143.832047,101.810173 
	C152.266418,107.057091 157.780350,114.332588 159.692535,123.074982 
	C162.063110,133.913055 163.330231,145.384933 157.751938,156.179993 
	C154.509323,162.455093 150.369827,167.747223 144.561676,171.851837 
	C131.330765,181.202118 117.281410,182.175201 102.662445,175.962830 
	C90.594681,170.834625 83.584015,161.001633 79.019325,148.690933 
M90.004166,144.205292 
	C94.187492,156.120117 102.018883,163.904800 114.748550,166.284760 
	C122.544853,167.742386 129.466858,165.647522 136.454758,162.236343 
	C142.825836,159.126297 147.062134,154.135223 148.724121,147.905975 
	C151.059814,139.151611 151.057571,129.749359 146.742920,121.579811 
	C144.345764,117.040955 140.059860,112.554520 135.508087,110.313248 
	C128.096558,106.663834 119.971001,106.113754 111.386742,108.316589 
	C104.089142,110.189255 98.589630,114.163254 94.506615,119.574669 
	C91.740074,123.241280 90.998741,128.636490 90.041222,133.397278 
	C89.398346,136.593628 89.961853,140.032623 90.004166,144.205292 
z"/>
<path fill="#007BFF" opacity="1.000000" stroke="none" 
	d="
M94.695038,78.404785 
	C90.445526,82.791824 86.587311,87.335632 82.574219,91.738281 
	C81.939102,92.435051 80.322731,93.079552 79.642120,92.750648 
	C76.225235,91.099396 73.269394,80.264198 75.686234,77.032745 
	C78.756714,72.927338 82.116592,68.795807 86.169746,65.772095 
	C88.142838,64.300133 92.210831,64.626030 94.046753,68.091164 
	C97.656563,74.904366 97.661057,75.073807 94.695038,78.404785 
z"/>
<path fill="#007BFF" opacity="1.000000" stroke="none" 
	d="
M154.149139,96.617294 
	C147.682434,94.443939 143.828644,89.089905 145.271301,83.339302 
	C145.700562,81.628136 148.228043,80.244537 150.059204,79.157265 
	C151.185043,78.488770 152.813278,78.666367 154.999512,78.351036 
	C157.078949,81.382797 160.779526,84.690620 161.661987,88.629768 
	C162.616257,92.889381 158.601501,95.604431 154.149139,96.617294 
z"/>
<path fill="#007BFF" opacity="1.000000" stroke="none" 
	d="
M165.727020,95.783310 
	C174.952133,96.158928 177.638870,98.361313 176.813995,105.733521 
	C176.502823,108.514656 174.091339,111.060791 172.637283,113.714058 
	C170.500259,112.389267 167.931885,111.457321 166.303467,109.669319 
	C160.357666,103.140854 160.475800,103.033264 165.727020,95.783310 
z"/>
<path fill="#007BFF" opacity="1.000000" stroke="none" 
	d="
M205.284515,31.740040 
	C209.775330,32.425236 213.248550,33.977982 216.691269,36.842987 
	C221.035583,40.458298 221.722168,45.131042 221.822678,49.720341 
	C222.081818,61.552464 208.965469,68.545181 197.915070,61.690777 
	C188.723511,55.989380 187.703003,44.291992 195.469589,36.342522 
	C198.486404,33.254654 202.030457,33.441471 205.284515,31.740040 
z"/>
<path fill="#FFFFFF" opacity="1.000000" stroke="none" 
	d="
M89.994888,143.784180 
	C89.961853,140.032623 89.398346,136.593628 90.041222,133.397278 
	C90.998741,128.636490 91.740074,123.241280 94.506615,119.574669 
	C98.589630,114.163254 104.089142,110.189255 111.386742,108.316589 
	C119.971001,106.113754 128.096558,106.663834 135.508087,110.313248 
	C140.059860,112.554520 144.345764,117.040955 146.742920,121.579811 
	C151.057571,129.749359 151.059814,139.151611 148.724121,147.905975 
	C147.062134,154.135223 142.825836,159.126297 136.454758,162.236343 
	C129.466858,165.647522 122.544853,167.742386 114.748550,166.284760 
	C102.018883,163.904800 94.187492,156.120117 89.994888,143.784180 
M138.120377,153.391769 
	C138.826935,152.996933 139.863708,152.781219 140.189819,152.179993 
	C144.177155,144.829041 146.044968,136.797470 142.788025,129.060516 
	C140.764206,124.252876 136.154343,120.556732 132.826874,116.267303 
	C130.442841,113.194061 127.453934,112.230598 123.636902,112.440254 
	C120.713013,112.600861 117.662827,111.420074 114.817467,111.840927 
	C109.851929,112.575371 106.335808,115.756729 102.790344,119.415833 
	C96.480751,125.927650 93.324821,136.512634 97.375679,144.492310 
	C99.416153,148.511765 103.054047,151.700409 105.829765,155.370514 
	C112.322952,163.955872 131.358292,164.121231 138.120377,153.391769 
z"/>
<path fill="#007BFF" opacity="1.000000" stroke="none" 
	d="
M137.852173,153.668335 
	C131.358292,164.121231 112.322952,163.955872 105.829765,155.370514 
	C103.054047,151.700409 99.416153,148.511765 97.375679,144.492310 
	C93.324821,136.512634 96.480751,125.927650 102.790344,119.415833 
	C106.335808,115.756729 109.851929,112.575371 114.817467,111.840927 
	C117.662827,111.420074 120.713013,112.600861 123.636902,112.440254 
	C127.453934,112.230598 130.442841,113.194061 132.826874,116.267303 
	C136.154343,120.556732 140.764206,124.252876 142.788025,129.060516 
	C146.044968,136.797470 144.177155,144.829041 140.189819,152.179993 
	C139.863708,152.781219 138.826935,152.996933 137.852173,153.668335 
z"/>
</svg>